<svg xmlns="http://www.w3.org/2000/svg" width="78" height="67" viewBox="0 0 78 67">
  <defs>
    <style>
      .cls-1 {
        fill: #0054a6;
        fill-rule: evenodd;
      }
    </style>
  </defs>
  <path id="collective" class="cls-1" d="M979.068,1409.92a0.568,0.568,0,0,1-.573-0.56,41.618,41.618,0,0,0-.516-6.18,0.574,0.574,0,0,1,1.131-.2,42.814,42.814,0,0,1,.533,6.36,0.569,0.569,0,0,1-.562.58h-0.013Zm-55.754,3.01q-0.039-.795-0.039-1.65c0-8.37,1.4-12.94,4.828-15.79l0.736,0.88c-3.137,2.61-4.416,6.92-4.416,14.91,0,0.55.013,1.09,0.037,1.59Zm56.4-12.75v-1.14c1.045,0,2.563-3.54,2.563-9.08a22.448,22.448,0,0,0-.891-6.65c-0.583-1.79-1.265-2.43-1.672-2.43v-1.15h0c1.123,0,2.079,1.12,2.764,3.23a23.512,23.512,0,0,1,.947,7C983.426,1395.04,982.151,1400.18,979.715,1400.18ZM954.365,1428c-23.518,0-32.98-5.23-33.371-5.45l-0.3-.17,0-.33c0-.37.2-9.11,6.044-11.97a39.487,39.487,0,0,1,7.214-2.27l0.273,1.11a38.689,38.689,0,0,0-6.98,2.19c-4.6,2.25-5.287,8.99-5.387,10.6,1.8,0.88,11.616,5.15,32.5,5.15s30.672-4.27,32.466-5.15c-0.1-1.61-.789-8.35-5.386-10.6a31.206,31.206,0,0,0-5.335-1.77l0.291-1.1a31.884,31.884,0,0,1,5.55,1.84c5.845,2.86,6.039,11.6,6.044,11.97l0,0.33-0.294.17C987.316,1422.77,977.884,1428,954.365,1428Zm16.178-35.69-0.344-1.09a2.106,2.106,0,0,0-.069-4.04l0.306-1.1A3.247,3.247,0,0,1,970.543,1392.31Zm-4.941,16.06-0.819-.8a16,16,0,0,0,3.609-6.19,25.934,25.934,0,0,0,1.188-8.1v-18.99h1.148v18.99a27.04,27.04,0,0,1-1.246,8.46A17.05,17.05,0,0,1,965.6,1408.37Zm-4.68-13.93h-1.493a0.57,0.57,0,1,1,0-1.14h1.493a1.29,1.29,0,1,0,0-2.58H960.8a0.573,0.573,0,0,1-.562-0.46l-0.765-3.7a0.574,0.574,0,0,1,1.124-.23l0.676,3.27A2.432,2.432,0,0,1,960.922,1394.44Zm-7.091-8.21a1.083,1.083,0,1,1-1.083-1.08A1.079,1.079,0,0,1,953.831,1386.23Zm-1.083,1.56a1.555,1.555,0,1,1,1.562-1.56A1.562,1.562,0,0,1,952.748,1387.79Zm0-2.16a0.605,0.605,0,1,0,.6.6A0.6,0.6,0,0,0,952.748,1385.63Zm3.2,0.1h-6.48a0.575,0.575,0,0,1,0-1.15h6.48A0.575,0.575,0,0,1,955.945,1385.73Zm12.232,0.5a1.083,1.083,0,1,1-1.082-1.08A1.078,1.078,0,0,1,968.177,1386.23Zm-1.082,1.56a1.555,1.555,0,1,1,1.56-1.56A1.563,1.563,0,0,1,967.1,1387.79Zm0-2.16a0.605,0.605,0,1,0,.6.6A0.6,0.6,0,0,0,967.1,1385.63Zm2.5,0.1h-5.744a0.575,0.575,0,0,1,0-1.15H969.6A0.575,0.575,0,0,1,969.6,1385.73Zm-12.208-2.18h-9.264a0.575,0.575,0,0,1,0-1.15h9.264A0.575,0.575,0,1,1,957.39,1383.55Zm12.764,0h-8.191a0.575,0.575,0,0,1,0-1.15h8.191A0.575,0.575,0,0,1,970.154,1383.55Zm-28.191,3.49c-0.093,0-.181-0.01-0.265-0.01a0.576,0.576,0,0,1-.534-0.61,0.57,0.57,0,0,1,.61-0.53,3.333,3.333,0,0,0,3.516-2.64l0-1.02v-0.05l0-.79a0.488,0.488,0,0,1,.009-0.1,3.355,3.355,0,0,1,3.351-2.79h0.286a3.271,3.271,0,0,0,3.482-2.61l0-.99a0.57,0.57,0,0,1,.574-0.57h0a0.569,0.569,0,0,1,.574.57l0,0.99a3.291,3.291,0,0,0,3.515,2.63l12.488-.02,0-3.76a0.574,0.574,0,0,1,.573-0.57h0a0.576,0.576,0,0,1,.574.57l0,4.33a0.576,0.576,0,0,1-.573.58l-13.024.01a5.169,5.169,0,0,0-8.251-.01h-0.205a2.165,2.165,0,0,0-2.232,1.79l0,0.74v0.05l0,1.08a0.563,0.563,0,0,1-.009.1A4.367,4.367,0,0,1,941.963,1387.04Zm22.934,12.45H953.831a0.575,0.575,0,0,1,0-1.15H964.9A0.575,0.575,0,0,1,964.9,1399.49Zm-4.8,2.71c-2.82,0-4.9-2.83-4.983-2.95a0.559,0.559,0,0,1-.046-0.59,0.585,0.585,0,0,1,.511-0.32h7.9a0.57,0.57,0,0,1,.461.24,0.555,0.555,0,0,1,.088.5A4.319,4.319,0,0,1,960.1,1402.2Zm-3.231-2.71a5.016,5.016,0,0,0,3.231,1.56,2.9,2.9,0,0,0,2.491-1.56h-5.722Zm-14.212-8.32h-1.506v1.15h1.506A0.575,0.575,0,0,0,942.659,1391.17Zm0.573-4.78a0.574,0.574,0,0,0-.573-0.57h-1.506v1.14h1.506A0.568,0.568,0,0,0,943.232,1386.39Zm-20.688-16.15a4.185,4.185,0,1,1,4.2-4.19A4.2,4.2,0,0,1,922.544,1370.24Zm0-7.23a3.04,3.04,0,1,0,3.049,3.04A3.052,3.052,0,0,0,922.544,1363.01Zm-4.039,14.04a0.62,0.62,0,0,1-.364-0.13,0.576,0.576,0,0,1-.078-0.81l6.257-7.57a0.574,0.574,0,1,1,.886.73l-6.257,7.57A0.568,0.568,0,0,1,918.505,1377.05Zm-7.958-11.37a0.572,0.572,0,0,1-.125-1.13l10.569-2.37a0.569,0.569,0,1,1,.252,1.11l-10.569,2.37A0.568,0.568,0,0,1,910.547,1365.68Zm4.752,4.91a0.565,0.565,0,0,1-.5-0.29,0.573,0.573,0,0,1,.226-0.78l7.246-3.97a0.576,0.576,0,0,1,.553,1.01l-7.246,3.96A0.55,0.55,0,0,1,915.3,1370.59Zm43,48.11c-10.575,0-18.182-2.24-22-6.48a10.55,10.55,0,0,1-2.639-8.55,0.574,0.574,0,0,1,1.141.12,9.475,9.475,0,0,0,2.352,7.67c3.592,3.98,10.9,6.09,21.144,6.09,11.335,0,17.577-4.03,17.577-11.36a0.574,0.574,0,0,1,1.148,0C977.022,1414.14,970.2,1418.7,958.3,1418.7Zm0-4.2c-12.555,0-21.784-4.72-25.988-13.28l1.032-.51c4,8.15,12.863,12.64,24.956,12.64,14.436,0,22.066-8.41,22.066-24.34,0-15.82-10.176-26.87-24.745-26.87-11.249,0-20.243,6.78-23.471,17.69l-1.1-.33c3.378-11.41,12.794-18.5,24.572-18.5a25.09,25.09,0,0,1,18.413,7.66c4.893,5.14,7.48,12.18,7.48,20.35C981.511,1405.45,973.267,1414.5,958.3,1414.5Zm1.105-5.16c-11.7,0-18.974-6.56-18.974-17.12,0-11.53,1.387-19.7,19.336-19.7,18.974,0,18.974,9.57,18.974,19.7C978.738,1402.78,971.329,1409.34,959.4,1409.34Zm0.362-35.67c-16.964,0-18.188,7.01-18.188,18.55,0,10,6.663,15.97,17.826,15.97,11.219,0,18.188-6.12,18.188-15.97C977.59,1380.72,976.729,1373.67,959.764,1373.67Zm-25.976,27.83a5.045,5.045,0,0,1-3.32-1.25,0.575,0.575,0,0,1-.06-0.81,0.581,0.581,0,0,1,.81-0.06,3.9,3.9,0,0,0,2.57.97c1.248,0,2.99-3.95,2.99-10.39s-1.742-10.4-2.99-10.4a3.907,3.907,0,0,0-2.485.9,0.575,0.575,0,1,1-.727-0.89,5.05,5.05,0,0,1,3.212-1.15c2.688,0,4.138,5.94,4.138,11.54S936.476,1401.5,933.788,1401.5Zm-3.062-1.32h0c-2.436,0-3.71-5.14-3.71-10.22s1.274-10.23,3.71-10.23,3.711,5.15,3.711,10.23S933.162,1400.18,930.726,1400.18Zm0-19.3c-0.406,0-1.089.64-1.672,2.43a22.45,22.45,0,0,0-.89,6.65c0,5.54,1.517,9.08,2.562,9.08s2.563-3.54,2.563-9.08S931.771,1380.88,930.726,1380.88ZM948.7,1427.3h-1.148c0-5.51-1.523-9.93-3.622-10.52l0.311-1.1C947.321,1416.54,948.7,1422.14,948.7,1427.3Zm25.536-.83a0.573,0.573,0,0,1-.573-0.54c-0.23-4.86-1.707-8.62-3.589-9.15a0.572,0.572,0,1,1,.311-1.1c2.945,0.83,4.217,5.81,4.424,10.19a0.568,0.568,0,0,1-.546.6h-0.027Z" transform="translate(-910 -1361)"/>
</svg>
