<svg xmlns="http://www.w3.org/2000/svg" width="528" height="378" viewBox="0 0 528 378">
  <defs>
    <style>
      .cls-1 {
        fill: #2159b1;
        fill-rule: evenodd;
        opacity: 0.3;
      }
    </style>
  </defs>
  <path id="compicon" class="cls-1" d="M245.522,478.194h21a7.838,7.838,0,0,0,0-15.675h-21A7.838,7.838,0,0,0,245.522,478.194ZM166.093,240.1H423.882V229.6H166.093v10.5ZM88.6,368.556H188.6V268.543H88.6V368.556Zm89.5-89.511v79.009h-79V279.045h79Zm31.913,89.511H310.021V268.543H210.016V368.556Zm89.5-89.511v79.009h-79V279.045h79ZM116.291,377.106v10.5h37.378v-10.5H116.291Zm121.044,0v10.5h37.372v-10.5H237.335ZM85.3,408.186h95.749v-10.5H85.3v10.5Zm0,12.7h95.749v-10.5H85.3v10.5Zm0,12.7h95.749v-10.5H85.3v10.5Zm123.228-25.4h95.749v-10.5H208.525v10.5Zm0,12.7h95.749v-10.5H208.525v10.5Zm0,12.7h95.749v-10.5H208.525v10.5Zm181.628,105.1H551.275V311.863H390.153V538.684ZM540.774,322.365V528.183H400.654V322.365h140.12Zm4.447-29.969h-74.18V211.568A16.584,16.584,0,0,0,454.479,195H57.561A16.585,16.585,0,0,0,41,211.568V483.114a16.586,16.586,0,0,0,16.564,16.571H206.133l-5.685,46.255h-49.82V573h210.8V545.94H311.6l-5.688-46.255h66.658v49.5a23.808,23.808,0,0,0,23.776,23.785H545.221A23.809,23.809,0,0,0,569,549.189V316.179A23.808,23.808,0,0,0,545.221,292.4ZM161.129,562.5v-6.056h189.8V562.5H161.129Zm49.9-16.558,5.684-46.255H295.33l5.688,46.255h-89.99ZM372.567,358.054H338.316V279.045h79V292.4H396.343a23.807,23.807,0,0,0-23.776,23.783v41.875ZM51.5,211.568a6.072,6.072,0,0,1,6.063-6.066H454.479a6.071,6.071,0,0,1,6.062,6.066V292.4H448.423V215.748H63.624v38.191h0V451.194h308.94v37.989H57.561a6.073,6.073,0,0,1-6.063-6.069V211.568Zm99.85,14.682H437.917v17.187H151.348V226.25Zm-10.5,17.187H74.128V226.25h66.719v17.187ZM74.128,440.692V253.939H437.922V292.4h-10.1V268.543h-100V368.556h44.752v8.55H359.133v10.5h13.434v10.076H329.944v10.5h42.623v2.2H329.944v10.5h42.623v2.2H329.944v10.5h42.623v7.11H74.128Zm471.093,121.78H396.343a13.294,13.294,0,0,1-13.275-13.283V316.179A13.292,13.292,0,0,1,396.343,302.9H545.221A13.294,13.294,0,0,1,558.5,316.179v233.01A13.3,13.3,0,0,1,545.221,562.472Zm-74.438-18.9A7.215,7.215,0,1,0,478,550.793,7.222,7.222,0,0,0,470.783,543.576Zm49.933-205.421h-100V438.164h100V338.155Zm-89.5,89.507v-79h79v79.005h-79Zm20.812,19.057v10.5H489.4v-10.5H452.027ZM422.84,477.8h95.748V467.3H422.84v10.5Zm0,12.7h95.748v-10.5H422.84v10.5Zm0,12.7h95.748v-10.5H422.84v10.5Z" transform="translate(-41 -195)"/>
</svg>
