<svg xmlns="http://www.w3.org/2000/svg" width="83" height="75" viewBox="0 0 83 75">
  <defs>
    <style>
      .cls-1 {
        fill: #fff;
        fill-rule: evenodd;
      }
    </style>
  </defs>
  <path id="graph" class="cls-1" d="M1040.93,614.829a2.666,2.666,0,0,0-3.7,0l-18.3,18.415a2.619,2.619,0,1,0,3.69,3.717l16.46-16.555,10.31,10.361a2.666,2.666,0,0,0,3.7,0l8.7-8.754a2.617,2.617,0,0,0,.65,2.592l3.1,3.116a2.613,2.613,0,0,0,3.7,0l2.83-2.852a2.623,2.623,0,0,0-3.7-3.719l-0.98.994-1.26-1.259a2.654,2.654,0,0,0-2.6-.623l8.17-8.22a2.619,2.619,0,1,0-3.69-3.719l-7.82,7.861a0.929,0.929,0,0,0,.02-0.166,2.6,2.6,0,0,0-.77-1.859l-17.03-17.13a2.666,2.666,0,0,0-3.7,0l-19.78,19.9a2.641,2.641,0,0,0,0,3.718,2.6,2.6,0,0,0,3.69,0l17.94-18.04,15.19,15.27a2.6,2.6,0,0,0,2.04.728l-6.55,6.589Zm38.46,29.923h-65.17V586.611a2.615,2.615,0,1,0-5.23,0v58.141h-7.38a2.629,2.629,0,0,0,0,5.258h7.38v6.332a2.615,2.615,0,1,0,5.23,0V650.01h65.17A2.629,2.629,0,0,0,1079.39,644.752Z" transform="translate(-999 -583.969)"/>
</svg>
