<svg xmlns="http://www.w3.org/2000/svg" width="83" height="59" viewBox="0 0 83 59">
  <defs>
    <style>
      .cls-1 {
        fill: #0054a6;
        fill-rule: evenodd;
      }
    </style>
  </defs>
  <path id="handsclient" class="cls-1" d="M245.979,1416.47h-50.57a2.4,2.4,0,0,1-2.409-2.39V1371.4a2.4,2.4,0,0,1,2.409-2.4h62.706a2.4,2.4,0,0,1,2.409,2.4v13.38H259.28V1371.4a1.164,1.164,0,0,0-1.165-1.16H195.409a1.164,1.164,0,0,0-1.165,1.16v42.68a1.164,1.164,0,0,0,1.165,1.16h50.57v1.23Zm-26.641,8.35-1.235-.15,1.1-8.89,1.235,0.15Zm14.85,0-1.1-8.89,1.235-.15,1.1,8.89Zm9.019,3.18H210.319v-3.84h32.888V1428Zm-31.643-1.24h30.4v-1.36h-30.4v1.36Zm13.54-13.66a1.025,1.025,0,1,1,0-2.05h3.318a1.025,1.025,0,1,1,0,2.05H225.1Zm21.014-4.25H196.575v-36.59h60.376v12.72h-1.244V1373.5H197.819v34.11h48.3v1.24Zm10.832-31H196.575v-5.59H256.95v5.59Zm-59.131-1.24h57.887v-3.11H197.819v3.11Zm55.255-.94H212.763v-1.23h40.311v1.23Zm-43.055,2.18H196.575v-5.59h13.444v5.59Zm-12.2-1.24h10.955v-3.11H197.819v3.11Zm18.085,19.25H200.52v-15.3H215.9v15.3Zm-14.14-1.23h12.9V1381.8h-12.9v12.83Zm33.322,1.23H219.7v-15.3h15.384v15.3Zm-14.14-1.23h12.9V1381.8h-12.9v12.83Zm25.033,1.23h-7.667v-15.3H253.7v4.28h-1.244v-3.04h-12.9v12.83h6.423v1.23Zm-35.594,3H204.9v-1.24h5.49v1.24Zm19.122,0h-5.489v-1.24h5.489v1.24Zm16.058,0h-2.306v-1.24h2.306v1.24Zm-30.855,3.23H200v-1.23H214.71v1.23Zm0,2H200v-1.24H214.71v1.24Zm0,1.99H200v-1.23H214.71v1.23Zm19.468-3.99H219.466v-1.23h14.712v1.23Zm0,2H219.466v-1.24h14.712v1.24Zm0,1.99H219.466v-1.23h14.712v1.23Zm11.663-3.99h-7.193v-1.23h7.193v1.23Zm-0.138,2h-7.055v-1.24H245.7v1.24Zm0.138,1.99h-7.193v-1.23h7.193v1.23Zm26.609,21.91H248.93a3.541,3.541,0,0,1-3.548-3.53v-36.62a3.541,3.541,0,0,1,3.548-3.53h23.52a3.542,3.542,0,0,1,3.55,3.53v36.62A3.542,3.542,0,0,1,272.45,1427.99Zm-23.52-42.45a2.3,2.3,0,0,0-2.3,2.3v36.62a2.3,2.3,0,0,0,2.3,2.3h23.52a2.3,2.3,0,0,0,2.305-2.3v-36.62a2.3,2.3,0,0,0-2.305-2.3H248.93ZM273.2,1422.6H248.16v-35.23H273.2v35.23Zm-23.8-1.23h22.551V1388.6H249.4v32.77Zm12.22,3.34a0.933,0.933,0,1,1-.933-0.92A0.928,0.928,0,0,1,261.624,1424.71Zm6.748-17.91H252.988v-15.3h15.384v15.3Zm-14.14-1.23h12.9v-12.83h-12.9v12.83Zm9.193,4.23h-5.49v-1.24h5.49v1.24Zm4.611,3.23H253.324v-1.23h14.712v1.23Zm0,2H253.324v-1.24h14.712v1.24Zm0,2H253.324v-1.24h14.712v1.24Z" transform="translate(-193 -1369)"/>
</svg>
