<svg xmlns="http://www.w3.org/2000/svg" width="61" height="103" viewBox="0 0 61 103">
  <defs>
    <style>
      .cls-1 {
        fill: #fff;
        fill-rule: evenodd;
      }
    </style>
  </defs>
  <path id="hand" class="cls-1" d="M630.008,576.389h-4.051V570h4.051v6.393Zm-12.515,5.457-4.475-4.52,2.864-2.894,4.475,4.52Zm-8.494,9.9v-4.092h6.328v4.092H609Zm7.256,13.07-2.864-2.893,4.474-4.521,2.864,2.893Zm24.356-.377-4.475-4.52L639,597.031l4.474,4.52Zm6.884-13.225h-6.328v-4.092H647.5v4.092Zm-8.866-9.751-2.864-2.892,4.474-4.52,2.864,2.893Zm18.2,74.2H652.78v-5.031l0.813-.614a9.753,9.753,0,0,0,3.905-7.844V621.607l-0.216-4.446a2.379,2.379,0,0,0-2.34-2.461c-2.33,0-2.338.845-2.338,1.256v0h-4.051v-1.1a2.337,2.337,0,1,0-4.674,0h-4.052v-2.2a2.337,2.337,0,1,0-4.674,0v2.261H631.1c0-1.065-.039-25.166-0.039-25.166a2.489,2.489,0,1,0-4.977,0l-0.025,44.545-4.049.084-0.09-2.17,0-9.2a4.668,4.668,0,0,0-4.642-4.683h-0.192v6.251l0.182,1.568-0.182.06v8.958l11.95,14.349a20.687,20.687,0,0,0,4.429,2.17l1.546,0.381v3.6H630.96v-0.532a32.169,32.169,0,0,1-4.352-2.325l-0.264-.169-13.31-15.98V624.872l-0.112-1.593,0.112-.037v-5.137l-0.113-.014,0.113-2.363V614.4l0.078-.006,0.008-.158h4.158a8.583,8.583,0,0,1,4.742,1.424l0.015-25.915a6.54,6.54,0,1,1,13.079,0h0s0.016,9.563.027,16.908a6.311,6.311,0,0,1,2.348-.451,6.379,6.379,0,0,1,5.464,3.109,6.3,6.3,0,0,1,3.263-.907,6.375,6.375,0,0,1,5.3,2.855,8.213,8.213,0,0,1,3.425-.652,6.43,6.43,0,0,1,6.389,6.455l0.216,4.445,0,20.666a13.813,13.813,0,0,1-4.718,10.46v3.029Zm-31.238,3.47V673h44.412V659.133H625.593Zm41.022,7.982h-4.052v-4.527h4.052v4.527Z" transform="translate(-609 -570)"/>
</svg>
