<svg xmlns="http://www.w3.org/2000/svg" width="73" height="60" viewBox="0 0 73 60">
  <defs>
    <style>
      .cls-1 {
        fill: #0054a6;
        fill-rule: evenodd;
      }
    </style>
  </defs>
  <path id="moreyo" class="cls-1" d="M736.9,1422.1l-5.1-5.07,1.112-1.1,5.1,5.07Zm-44.8,0-1.112-1.1,4.84-4.81,1.112,1.1Zm23.189,8.9h-1.572v-5.82h1.572V1431Zm0-55.16h-1.572V1371h1.572v4.84Zm28.907,35.97-5.765-2.37,0.6-1.45,5.765,2.38Zm-41.4,17.03-1.453-.6,2.642-6.33,1.452,0.6Zm21.542-51.65-1.44-.63,1.9-4.3,1.441,0.63ZM684.8,1411.8l-0.6-1.44,5.484-2.26,0.6,1.44Zm41.391,17.05-2.819-6.77,1.453-.6,2.819,6.77Zm-21.726-51.66-1.9-4.3,1.44-.63,1.9,4.3Zm38.682,21.63h0a2.975,2.975,0,0,1-2.157-.93l-14.011-14.8a2.908,2.908,0,0,1,.15-4.13l4.906-4.53a2.914,2.914,0,0,1,2-.78,2.972,2.972,0,0,1,2.157.93l14.011,14.8a2.908,2.908,0,0,1-.149,4.13l-4.906,4.53A2.965,2.965,0,0,1,743.142,1398.82Zm-9.11-23.61a1.39,1.39,0,0,0-.933.36l-4.906,4.53a1.363,1.363,0,0,0-.071,1.93l14.011,14.79a1.414,1.414,0,0,0,1.941.08l4.906-4.53a1.364,1.364,0,0,0,.072-1.93l-14.012-14.79A1.344,1.344,0,0,0,734.032,1375.21Zm-27.139,25.52a3.916,3.916,0,0,1-2.439-.85,3.864,3.864,0,0,1-.477-5.61l6.84-7.64a9.449,9.449,0,0,1,7.017-3.12H722a7.27,7.27,0,0,0,4.271-1.38l0.923,1.27a8.866,8.866,0,0,1-5.194,1.67h-4.163a7.867,7.867,0,0,0-5.843,2.6l-6.84,7.64a2.273,2.273,0,0,0-.581,1.73,2.3,2.3,0,0,0,.866,1.62,2.342,2.342,0,0,0,3.119-.19l4.952-5.01a3.524,3.524,0,0,1,4.229-.62,6.165,6.165,0,0,0,7.479-.78l1.017,1.19a7.745,7.745,0,0,1-9.271.95,1.938,1.938,0,0,0-2.332.35l-4.952,5.02A3.908,3.908,0,0,1,706.893,1400.73Zm28.253,6.39-1.112-1.11,1.028-1.02a7.211,7.211,0,0,0,2.119-4.7l0.019-.33,3.516-3.06,1.035,1.18-3.025,2.63a8.8,8.8,0,0,1-2.553,5.39Zm-49.3-8.3a2.963,2.963,0,0,1-2-.78l-4.906-4.53a2.91,2.91,0,0,1-.153-4.13l14.018-14.8a2.96,2.96,0,0,1,2.154-.93,2.916,2.916,0,0,1,2,.78l4.9,4.53a2.91,2.91,0,0,1,.154,4.13L688,1397.89A2.96,2.96,0,0,1,685.844,1398.82Zm9.11-23.61a1.358,1.358,0,0,0-1,.43l-14.018,14.81a1.355,1.355,0,0,0,.075,1.92l4.9,4.53a1.41,1.41,0,0,0,1.938-.08l14.018-14.8a1.354,1.354,0,0,0-.075-1.92l-4.905-4.53A1.392,1.392,0,0,0,694.954,1375.21Zm22.6,9.86H706.367a8.957,8.957,0,0,1-4.123-1.01l-0.549-.29,0.733-1.38,0.549,0.28a7.283,7.283,0,0,0,3.39.84h11.188v1.56Zm-24.059,21.7-0.684-.67a8.791,8.791,0,0,1-2.55-5.36l-3.291-2.53,0.961-1.23,3.852,2.95,0.02,0.36a7.212,7.212,0,0,0,2.12,4.7l0.683,0.68Zm23.682,16.24a3.782,3.782,0,0,1-2.486-.92l-0.358-.18,0.705-1.4,0.55,0.28,0.08,0.07a2.232,2.232,0,0,0,3.085-.06,2.216,2.216,0,0,0,.224-2.88l-4.112-3.79,1.065-1.15,3.817,3.47a3.568,3.568,0,0,1,.4.42l0.577,0.53a2.239,2.239,0,0,0,3.082-.07,2.181,2.181,0,0,0,.652-1.61,2.212,2.212,0,0,0-.447-1.29l-4.877-4.54,1.073-1.14,4.6,4.24a3.336,3.336,0,0,1,.371.39l0.588,0.54a2.214,2.214,0,0,0,3.078-.07,2.2,2.2,0,0,0-.068-3.19l-5.371-5.01,1.076-1.14,5.552,5.17a2.225,2.225,0,0,0,3.079-.07,2.195,2.195,0,0,0,.662-1.61,2.217,2.217,0,0,0-.713-1.59l-11.993-10.97,1.065-1.15,12,10.98a3.757,3.757,0,0,1,.105,5.44,3.811,3.811,0,0,1-3.2,1.08,3.955,3.955,0,0,1,.031.42,3.739,3.739,0,0,1-1.112,2.75,3.81,3.81,0,0,1-3.923.9,3.743,3.743,0,0,1-1.113,2.58,3.812,3.812,0,0,1-3.936.9,3.717,3.717,0,0,1-1.112,2.56A3.8,3.8,0,0,1,717.178,1423.01ZM696.7,1412.18a3.919,3.919,0,0,1-2.437-.85,3.864,3.864,0,0,1-.477-5.61l2.707-2.8a3.8,3.8,0,0,1,2.771-1.17,3.814,3.814,0,0,1,2.852,6.37l-2.607,2.87A3.881,3.881,0,0,1,696.7,1412.18Zm2.564-8.87a2.281,2.281,0,0,0-1.637.69l-2.687,2.78a2.31,2.31,0,0,0,.3,3.33,2.33,2.33,0,0,0,3.12-.19l2.584-2.85a2.242,2.242,0,0,0-.157-3.17A2.269,2.269,0,0,0,699.267,1403.31Zm2.293,12.67a3.922,3.922,0,0,1-2.438-.85,3.864,3.864,0,0,1-.477-5.61l2.708-2.8a3.8,3.8,0,0,1,2.77-1.17,3.814,3.814,0,0,1,2.853,6.37l-2.607,2.87A3.882,3.882,0,0,1,701.56,1415.98Zm2.563-8.87a2.281,2.281,0,0,0-1.636.69l-2.687,2.78a2.309,2.309,0,0,0,.305,3.33,2.329,2.329,0,0,0,3.119-.19l2.584-2.85a2.243,2.243,0,0,0-.157-3.17A2.271,2.271,0,0,0,704.123,1407.11Zm2.32,12.7a3.98,3.98,0,0,1-2.437-.85,3.85,3.85,0,0,1-1.451-2.71,3.806,3.806,0,0,1,.974-2.9l2.707-2.8a3.813,3.813,0,0,1,2.771-1.18,3.858,3.858,0,0,1,2.585,1,3.811,3.811,0,0,1,.267,5.38l-2.607,2.87A3.92,3.92,0,0,1,706.443,1419.81Zm2.564-8.87a2.242,2.242,0,0,0-1.637.69l-2.687,2.78a2.27,2.27,0,0,0-.562,1.71,2.338,2.338,0,0,0,3.986,1.43l2.584-2.85a2.254,2.254,0,0,0-.157-3.18A2.309,2.309,0,0,0,709.007,1410.94Zm2.359,12.89a3.922,3.922,0,0,1-2.438-.85,3.864,3.864,0,0,1-.477-5.61l2.708-2.8a3.8,3.8,0,0,1,2.771-1.17,3.814,3.814,0,0,1,2.852,6.37l-2.607,2.87A3.881,3.881,0,0,1,711.366,1423.83Zm2.564-8.87a2.281,2.281,0,0,0-1.637.69l-2.688,2.78a2.31,2.31,0,0,0,.306,3.33,2.329,2.329,0,0,0,3.119-.19l2.584-2.85a2.243,2.243,0,0,0-.157-3.17A2.271,2.271,0,0,0,713.93,1414.96Zm33.62-13.2-2.964-.32,0.168-1.55,2.964,0.31Zm-65.259,0-0.168-1.56,2.964-.31,0.168,1.55Z" transform="translate(-678 -1371)"/>
</svg>
