<svg xmlns="http://www.w3.org/2000/svg" width="20" height="28" viewBox="0 0 20 28">
  <defs>
    <style>
      .cls-1 {
        fill-rule: evenodd;
      }
    </style>
  </defs>
  <path id="phone" class="cls-1" d="M340.23,3202.44q-3.762-1.29-7.528-2.55a1.037,1.037,0,0,0-1.367.66l-0.068.18a11.364,11.364,0,0,1-3.947-6.4l0.206,0.03a1.028,1.028,0,0,0,1.256-.96c0.385-2.59.769-5.17,1.152-7.76a1.057,1.057,0,0,0-1-1.37l-5.58-.9a1.008,1.008,0,0,0-1.128.61c-0.094.2-.173,0.41-0.244,0.61a17.654,17.654,0,0,0-.886,7.72,19.469,19.469,0,0,0,2.347,7.72,19.666,19.666,0,0,0,11.229,9.31,14.425,14.425,0,0,0,3.266.65,0.467,0.467,0,0,0,.117.01,1.028,1.028,0,0,0,.145-2.05l-0.194-.03a0.685,0.685,0,0,1-.14-0.02l-0.412-.06a8.414,8.414,0,0,1-.905-0.15,17.1,17.1,0,0,1-10.081-6.79,17.32,17.32,0,0,1-3.009-13.69,11.459,11.459,0,0,1,.329-1.3c0.034-.12.068-0.24,0.1-0.35l3.907,0.63-0.91,6h-0.016c-0.236-.04-0.46-0.07-0.686-0.1a1.075,1.075,0,0,0-1,.31,1.121,1.121,0,0,0-.247.9q0.03,0.27.083,0.54a15.053,15.053,0,0,0,6.012,9.48,1.292,1.292,0,0,0,.738.26,1.065,1.065,0,0,0,.988-0.81l0.214-.63,5.707,1.96-0.048.14c-0.116.34-.228,0.66-0.331,0.99a1.04,1.04,0,0,0,.615,1.35,1.1,1.1,0,0,0,.356.06,1.043,1.043,0,0,0,.983-0.75c0.249-.73.473-1.41,0.683-2.08A1.011,1.011,0,0,0,340.23,3202.44Zm-2.6-13.09a7.228,7.228,0,0,1-2.616,5.68l-0.26.23,1.386,1.38,0.225-.19a9.4,9.4,0,0,0-.021-14.27l-0.223-.18-1.418,1.39,0.26,0.23A7.414,7.414,0,0,1,337.63,3189.35Zm-4.575-.02a1.28,1.28,0,0,1-.812,1.19l-0.415.2,1.528,1.5,0.211-.12a3.087,3.087,0,0,0,1.547-2.67,3.129,3.129,0,0,0-1.464-2.76,0.628,0.628,0,0,0-.336-0.09,0.429,0.429,0,0,0-.3.1c-0.251.23-.493,0.47-0.741,0.71l-0.595.58,0.463,0.18A1.356,1.356,0,0,1,333.055,3189.33Z" transform="translate(-321 -3182)"/>
</svg>
