<svg xmlns="http://www.w3.org/2000/svg" width="68" height="57" viewBox="0 0 68 57">
  <defs>
    <style>
      .cls-1 {
        fill: #0054a6;
        fill-rule: evenodd;
      }
    </style>
  </defs>
  <path id="salesup" class="cls-1" d="M501.611,1428H437v-57h1.342v55.65h63.27V1428Zm-58.48-2.78-0.538-1.24,2.54-1.11,5.632-6.68h5.723l3.321-3.5,6.323,3,7.4-9.58,6.992,3.26,4.354-2.86,2.99-8.97,5.73,1.95h3l2.681-5.16h2.038l2.9-2.06,0.775,1.1-3.249,2.31H500.1l-2.682,5.16h-4.037l-4.663-1.59-2.711,8.13-5.368,3.53-6.7-3.13-7.406,9.59-6.419-3.05-3.049,3.22h-5.677l-5.432,6.44Zm14.7-45.03h-1.342v-8.26a0.671,0.671,0,0,1,.671-0.67h29.209a0.671,0.671,0,0,1,.671.67v2.65H485.7v-1.98H457.833v7.59Zm2.417,0h-1.341v-5.58a0.67,0.67,0,0,1,.671-0.67h29.208a0.67,0.67,0,0,1,.671.67v2.44h-1.341v-1.76H460.25v4.9Zm30.956,12.89H467.449v-1.34h23.086v-13.91H462.668v2.02h-1.342v-2.69a0.68,0.68,0,0,1,.671-0.68h29.209a0.68,0.68,0,0,1,.671.68v15.25A0.671,0.671,0,0,1,491.206,1393.08Zm-4.846-2.8a1.99,1.99,0,1,1,1.983-1.99A1.988,1.988,0,0,1,486.36,1390.28Zm0-2.64a0.645,0.645,0,1,0,.641.65A0.646,0.646,0,0,0,486.36,1387.64Zm-20.253,9.15H446.686a1.911,1.911,0,0,1-1.9-1.91V1381.7a1.9,1.9,0,0,1,1.9-1.91h19.421a1.9,1.9,0,0,1,1.9,1.91v13.18A1.911,1.911,0,0,1,466.107,1396.79Zm-19.421-15.66a0.569,0.569,0,0,0-.561.57v13.18a0.561,0.561,0,0,0,.561.56h19.421a0.561,0.561,0,0,0,.562-0.56V1381.7a0.569,0.569,0,0,0-.562-0.57H446.686Zm4.937,12.83h-3.494a0.981,0.981,0,0,1-.98-0.98v-3.22a0.981,0.981,0,0,1,.98-0.98h3.494a0.981,0.981,0,0,1,.978.98v3.22A0.981,0.981,0,0,1,451.623,1393.96Zm-3.132-1.34h2.768v-2.49h-2.768v2.49Zm19.52-5.58H444.783v-4.14h23.228v4.14Zm-21.886-1.35h20.544v-1.44H446.125v1.44Zm18.2,4.44H455.34v-1.35h8.988v1.35Zm-5.2,1.91H455.34v-1.34h3.787v1.34Zm5.2,0h-4.09v-1.34h4.09v1.34Zm1.935,13.96-0.888-1.01,5.14-4.55,0.887,1.01Zm-3.085,1.23-6.16-.01,0-1.35,6.16,0.02Zm-13.785,5.67-0.823-1.06,5.861-4.56,0.823,1.06Zm-1.663,2.78a1.763,1.763,0,0,1-.229-0.01A2.212,2.212,0,1,1,447.73,1415.68Zm0-3.06a0.861,0.861,0,0,0-.662,1.4,0.864,0.864,0,0,0,.576.31,0.855,0.855,0,0,0,.937-0.76,0.866,0.866,0,0,0-.761-0.95h-0.09Zm16.907-3.89a1.763,1.763,0,0,1-.229-0.01,2.2,2.2,0,0,1,.454-4.38,2.163,2.163,0,0,1,1.478.8A2.2,2.2,0,0,1,464.633,1408.73Zm0-3.06a0.861,0.861,0,0,0-.661,1.4,0.823,0.823,0,0,0,.574.31,0.856,0.856,0,0,0,.752-1.39,0.823,0.823,0,0,0-.575-0.31A0.283,0.283,0,0,0,464.629,1405.67Zm-8.871,2.86a1.185,1.185,0,0,1-.188-0.01A1.79,1.79,0,1,1,455.758,1408.53Zm0-2.25a0.456,0.456,0,0,0-.045.91,0.457,0.457,0,0,0,.093-0.91h-0.048Zm16.122-4.27c-0.062,0-.124-0.01-0.187-0.01A1.788,1.788,0,1,1,471.876,1402.01Zm0-2.26a0.455,0.455,0,0,0-.448.41,0.463,0.463,0,0,0,.2.43,0.473,0.473,0,0,0,.2.07,0.445,0.445,0,0,0,.5-0.4,0.452,0.452,0,0,0-.4-0.5C471.905,1399.76,471.889,1399.75,471.873,1399.75Zm5.591-14.01a1.984,1.984,0,0,0,2.069-2.09,1.994,1.994,0,0,0-.577-1.5,2.036,2.036,0,0,0-1.492-.57h-2.9v0.8h0.607v4.21h-0.607v0.79h0.607v0.8H476.1v-0.8h2.813v-0.79H476.1v-0.85h1.361Zm-1.361-3.36h1.221a1.159,1.159,0,0,1,1.249,1.27,1.182,1.182,0,0,1-1.259,1.29H476.1v-2.56Z" transform="translate(-437 -1371)"/>
</svg>
